<svg width="32" height="32" viewBox="0 0 32 32" fill="none" xmlns="http://www.w3.org/2000/svg">
<path d="M32 16C32 7.16344 24.8366 0 16 0C7.16344 0 0 7.16344 0 16C0 24.8366 7.16344 32 16 32C24.8366 32 32 24.8366 32 16Z" fill="white"/>
<path d="M17.0241 23.0502C9.72813 23.0502 5.56813 18.0582 5.39746 9.73821H9.06679C9.18413 15.8395 11.8721 18.4209 14.0055 18.9542V9.73821H17.4508V14.9969C19.5521 14.7729 21.7708 12.3729 22.5175 9.72754H25.9521C25.6721 11.0969 25.1126 12.3938 24.3088 13.5372C23.5049 14.6806 22.4739 15.6459 21.2801 16.3729C22.6123 17.0359 23.7888 17.9739 24.732 19.1249C25.6752 20.2758 26.3637 21.6137 26.7521 23.0502H22.9655C22.1548 20.5222 20.1281 18.5595 17.4508 18.2929V23.0502H17.0348H17.0241Z" fill="#1C1C1C"/>
</svg>
